# xmcd
#
# Track frame offsets:
#	150
#	34721
#	63658
#	92248
#	121704
#	132510
#	157922
#
# Disc length: 2584 seconds
#
# Revision: 1
# Processed by: cddbd v1.5.2PL0 Copyright (c) Steve Scherf et al.
# Submitted via: audiograbber 1.83.01
#
DISCID=570a1607
DTITLE=Grateful Dead - 82-09-09 Saenger Performing Arts Centre, New Orleans LA
DYEAR=1900
DGENRE=
TTITLE0=Mississippi Half-Step
TTITLE1=Franklin's Tower
TTITLE2=Feel Like A Stranger
TTITLE3=West LA Fadeaway
TTITLE4=Mama Tried
TTITLE5=Mexicali Blues
TTITLE6=Althea
EXTD=
EXTT0=
EXTT1=
EXTT2=
EXTT3=
EXTT4=
EXTT5=
EXTT6=
PLAYORDER=
